<?xml version="1.0" encoding="utf-8"?>
<!-- Generator: Adobe Illustrator 24.1.0, SVG Export Plug-In . SVG Version: 6.00 Build 0)  -->
<svg version="1.1" id="Слой_1" xmlns="http://www.w3.org/2000/svg" xmlns:xlink="http://www.w3.org/1999/xlink" x="0px" y="0px"
	 viewBox="0 0 500 500" style="enable-background:new 0 0 500 500;" xml:space="preserve">
<style type="text/css">
	.st0{fill:#A9C215;}
	.st1{fill:#019DD8;}
</style>
<g>
	<path class="st0" d="M500,0c-5.41,21.24-117.68,461.7-129.43,487.24c-3.28,7.14-7.11,10.88-11.37,11.15
		c-7.92,0.47-15.16-11.15-15.2-11.19L230.4,267.79C262.78,143.93,296.4,11.96,299.44,0H500z"/>
</g>
<path class="st1" d="M343.26,499.88c-6.57-2.92-10.59-11.46-10.85-11.87l-2.49-4.8L200.38,233.17L0,233.41
	c0,0,128.51,247.92,133.55,257.19s9.28,9.75,17.2,9.27C152.61,499.76,343.26,499.88,343.26,499.88z"/>
</svg>
