<?xml version="1.0" encoding="utf-8"?>
<!-- Generator: Adobe Illustrator 24.1.0, SVG Export Plug-In . SVG Version: 6.00 Build 0)  -->
<svg version="1.1" id="Слой_1" xmlns="http://www.w3.org/2000/svg" xmlns:xlink="http://www.w3.org/1999/xlink" x="0px" y="0px"
	 viewBox="0 0 700 250" style="enable-background:new 0 0 700 250;" xml:space="preserve">
<style type="text/css">
	.st0{fill:#A9C215;}
	.st1{fill:#019DD8;}
	.st2{fill:#333333;}
</style>
<g>
	<g>
		<path class="st0" d="M250.03,0c-2.71,10.62-58.85,230.85-64.72,243.62c-1.64,3.57-3.56,5.44-5.68,5.57
			c-3.96,0.23-7.58-5.57-7.6-5.59l-56.81-109.71C131.41,71.97,148.22,5.98,149.74,0H250.03z"/>
	</g>
	<path class="st1" d="M171.65,249.94c-3.29-1.46-5.3-5.73-5.43-5.93l-1.24-2.4L100.2,116.58L0,116.71c0,0,64.26,123.96,66.78,128.6
		c2.52,4.64,4.64,4.88,8.6,4.64C76.31,249.88,171.65,249.94,171.65,249.94z"/>
	<g>
		<path class="st2" d="M307.42,92.68c3.65,0,6.65-0.55,9.01-1.66c2.35-1.1,4.18-2.59,5.48-4.47c1.3-1.87,2.18-4.03,2.67-6.48
			c0.48-2.45,0.72-4.97,0.72-7.56v-2.59h19.02v2.59c0,12.01-3.15,21.25-9.44,27.73c-6.29,6.48-15.45,9.72-27.46,9.72
			c-11.53,0-20.66-3.51-27.38-10.52c-6.73-7.01-10.09-17.24-10.09-30.69V46.28c0-6.43,0.87-12.22,2.59-17.36
			c1.73-5.14,4.23-9.46,7.49-12.97c3.27-3.51,7.21-6.2,11.82-8.07c4.61-1.87,9.8-2.81,15.56-2.81c5.96,0,11.24,0.86,15.85,2.59
			c4.61,1.73,8.48,4.23,11.6,7.49c3.12,3.27,5.48,7.2,7.06,11.81c1.58,4.61,2.38,9.8,2.38,15.56v2.59h-19.02v-2.59
			c0-2.4-0.29-4.8-0.86-7.2c-0.58-2.4-1.54-4.56-2.88-6.48c-1.35-1.92-3.17-3.48-5.48-4.68c-2.31-1.2-5.19-1.8-8.65-1.8
			c-3.17,0-5.91,0.6-8.21,1.8c-2.31,1.2-4.23,2.83-5.76,4.9c-1.54,2.07-2.67,4.46-3.39,7.2c-0.72,2.74-1.08,5.6-1.08,8.57V70.2
			c0,3.27,0.34,6.27,1.01,9c0.67,2.74,1.73,5.11,3.17,7.13c1.44,2.02,3.34,3.58,5.69,4.68C301.2,92.12,304.06,92.68,307.42,92.68z"
			/>
		<path class="st2" d="M360.02,7.09h19.02V48.3h32.57V7.09h19.02v100.86h-19.02v-41.5h-32.57v41.5h-19.02V7.09z"/>
		<path class="st2" d="M451.25,7.09h63.7v18.15h-44.68V48.3h42.95v18.15h-42.95V89.8h46.41v18.15h-65.43V7.09z"/>
		<path class="st2" d="M572.02,92.68c3.65,0,6.65-0.55,9.01-1.66c2.35-1.1,4.18-2.59,5.47-4.47s2.18-4.03,2.67-6.48
			c0.48-2.45,0.72-4.97,0.72-7.56v-2.59h19.02v2.59c0,12.01-3.15,21.25-9.44,27.73c-6.29,6.48-15.45,9.72-27.45,9.72
			c-11.53,0-20.66-3.51-27.38-10.52c-6.73-7.01-10.09-17.24-10.09-30.69V46.28c0-6.43,0.87-12.22,2.59-17.36
			c1.73-5.14,4.23-9.46,7.49-12.97c3.27-3.51,7.21-6.2,11.82-8.07c4.61-1.87,9.8-2.81,15.57-2.81c5.96,0,11.24,0.86,15.85,2.59
			c4.61,1.73,8.48,4.23,11.6,7.49c3.12,3.27,5.48,7.2,7.06,11.81c1.59,4.61,2.38,9.8,2.38,15.56v2.59h-19.02v-2.59
			c0-2.4-0.29-4.8-0.87-7.2c-0.57-2.4-1.54-4.56-2.88-6.48c-1.35-1.92-3.17-3.48-5.48-4.68c-2.31-1.2-5.19-1.8-8.65-1.8
			c-3.17,0-5.91,0.6-8.22,1.8c-2.31,1.2-4.23,2.83-5.76,4.9c-1.54,2.07-2.67,4.46-3.39,7.2c-0.72,2.74-1.08,5.6-1.08,8.57V70.2
			c0,3.27,0.34,6.27,1.01,9c0.67,2.74,1.73,5.11,3.17,7.13s3.34,3.58,5.69,4.68C565.8,92.12,568.66,92.68,572.02,92.68z"/>
		<path class="st2" d="M645.96,107.95h-19.02V7.09h19.02v41.35h4.18L676.8,7.09h21.47v0.87l-31.13,48.27v2.59L700,107.08v0.87
			h-22.34L650.14,66.6h-4.18V107.95z"/>
		<path class="st2" d="M269.95,142.05h73.42v18.15h-27.1v82.7h-19.23v-82.7h-27.1V142.05z"/>
		<path class="st2" d="M430.34,242.91h-19.23v-30.26c0-2.31-0.61-4.18-1.82-5.62c-1.22-1.44-3.23-2.16-6.05-2.16H381.1v38.04h-19.23
			V142.05h39.04c5.24,0,9.86,0.72,13.84,2.16c3.98,1.44,7.31,3.44,9.98,5.98c2.67,2.55,4.71,5.5,6.12,8.86
			c1.41,3.36,2.11,6.96,2.11,10.81v3.46c0,4.13-1.12,8-3.35,11.6c-2.23,3.6-5.68,6.36-10.34,8.29v2.59c3.4,0.38,6.09,1.68,8.09,3.89
			c1.99,2.21,2.99,4.99,2.99,8.36V242.91z M381.1,186.71h18.36c4.66,0,8.21-1.08,10.64-3.24c2.43-2.16,3.64-5.21,3.64-9.15v-1.73
			c0-3.36-1.22-6.27-3.64-8.72c-2.43-2.45-5.97-3.67-10.64-3.67H381.1V186.71z"/>
		<path class="st2" d="M521.69,142.05v65.99c0,11.53-3.08,20.55-9.25,27.09c-6.17,6.53-15.32,9.8-27.46,9.8
			c-12.14,0-21.29-3.26-27.46-9.8c-6.17-6.53-9.25-15.56-9.25-27.09v-65.99h19.23v65.99c0,5.96,1.41,10.61,4.22,13.97
			c2.82,3.36,7.23,5.04,13.26,5.04c6.02,0,10.44-1.68,13.26-5.04c2.82-3.36,4.23-8.02,4.23-13.97v-65.99H521.69z"/>
		<path class="st2" d="M591.61,172.88c0-4.03-1.58-7.54-4.73-10.52c-3.16-2.98-7.6-4.47-13.33-4.47c-4.86,0-8.69,0.99-11.51,2.95
			c-2.82,1.97-4.23,4.64-4.23,8c0,1.73,0.34,3.29,1.02,4.68c0.68,1.39,1.87,2.64,3.57,3.75c1.7,1.1,3.93,2.09,6.7,2.95
			c2.77,0.86,6.29,1.68,10.56,2.45c10.68,1.92,18.84,5.14,24.47,9.65c5.63,4.51,8.45,11.19,8.45,20.03v1.73
			c0,4.71-0.85,8.96-2.55,12.75c-1.7,3.8-4.15,7.04-7.36,9.73c-3.21,2.69-7.09,4.75-11.65,6.2c-4.57,1.44-9.71,2.16-15.44,2.16
			c-6.7,0-12.6-0.94-17.7-2.81c-5.1-1.87-9.35-4.47-12.75-7.78c-3.4-3.31-5.97-7.2-7.72-11.67c-1.75-4.47-2.62-9.34-2.62-14.62
			v-4.32h19.23v3.46c0,6.05,1.77,10.88,5.32,14.48c3.54,3.6,9.06,5.4,16.54,5.4c5.83,0,10.15-1.25,12.97-3.75
			c2.82-2.5,4.23-5.48,4.23-8.93c0-1.63-0.29-3.19-0.87-4.68c-0.58-1.49-1.6-2.83-3.06-4.03c-1.46-1.2-3.45-2.28-5.97-3.24
			c-2.53-0.96-5.73-1.78-9.61-2.45c-5.15-0.87-9.86-1.99-14.13-3.39c-4.28-1.39-7.99-3.24-11.14-5.55
			c-3.16-2.31-5.61-5.19-7.36-8.65c-1.75-3.46-2.62-7.68-2.62-12.68v-0.86c0-4.13,0.85-7.95,2.55-11.46c1.7-3.5,4.08-6.55,7.14-9.15
			c3.06-2.59,6.75-4.61,11.07-6.05c4.32-1.44,9.15-2.16,14.49-2.16c6.02,0,11.36,0.84,16.02,2.52c4.66,1.68,8.57,3.96,11.73,6.84
			c3.16,2.88,5.54,6.2,7.14,9.94c1.6,3.75,2.4,7.68,2.4,11.81v5.19h-19.23V172.88z"/>
		<path class="st2" d="M626.58,142.05H700v18.15h-27.1v82.7h-19.23v-82.7h-27.1V142.05z"/>
	</g>
</g>
</svg>
