<svg xmlns="http://www.w3.org/2000/svg" viewBox="0 0 68 34">
  <defs>
    <linearGradient id="mir-a" x1="-.18%" x2="100%" y1="50%" y2="50%">
      <stop offset="0%" stop-color="#00B4E6"/>
      <stop offset="100%" stop-color="#088CCB"/>
    </linearGradient>
  </defs>
  <g fill="none" fill-rule="evenodd" transform="translate(0 7)">
    <path fill="url(#mir-a)" d="M60.3673469,-1.29984912e-12 L47.4612245,-1.29984912e-12 C48.155102,4.42857143 52.3183673,8.57142857 56.8979592,8.57142857 L67.1673469,8.57142857 C67.3061224,8.14285714 67.3061224,7.57142857 67.3061224,7.14285714 C67.3061224,3.14285714 64.2530612,-1.29984912e-12 60.3673469,-1.29984912e-12 Z"/>
    <path fill="#4DB45F" d="M48.5714286 9.28571429L48.5714286 20 54.8163265 20 54.8163265 14.2857143 60.3673469 14.2857143C63.4204082 14.2857143 66.0571429 12.1428571 66.8897959 9.28571429L48.5714286 9.28571429zM26.3673469-8.8817842e-16L26.3673469 20 31.9183673 20C31.9183673 20 33.3061224 20 34 18.5714286 37.7469388 10.8571429 38.8571429 8.57142857 38.8571429 8.57142857L39.5510204 8.57142857 39.5510204 20 45.7959184 20 45.7959184-8.8817842e-16 40.244898-8.8817842e-16C40.244898-8.8817842e-16 38.8571429.142857143 38.1632653 1.42857143 34.9714286 8 33.3061224 11.4285714 33.3061224 11.4285714L32.6122449 11.4285714 32.6122449-8.8817842e-16 26.3673469-8.8817842e-16zM-1.95399252e-13 20L-1.95399252e-13-8.8817842e-16 6.24489796-8.8817842e-16C6.24489796-8.8817842e-16 8.04897959-8.8817842e-16 9.02040816 2.85714286 11.5183673 10.4285714 11.7959184 11.4285714 11.7959184 11.4285714 11.7959184 11.4285714 12.3510204 9.57142857 14.5714286 2.85714286 15.5428571-8.8817842e-16 17.3469388-8.8817842e-16 17.3469388-8.8817842e-16L23.5918367-8.8817842e-16 23.5918367 20 17.3469388 20 17.3469388 9.28571429 16.6530612 9.28571429 13.1836735 20 10.4081633 20 6.93877551 9.28571429 6.24489796 9.28571429 6.24489796 20-1.95399252e-13 20z"/>
  </g>
</svg>
