<svg viewBox="0 0 150 32" fill="none" xmlns="http://www.w3.org/2000/svg" class="logo_3tn5I"><path d="M0.32 6C0.32 2.86302 2.86302 0.32 6 0.32H26C29.137 0.32 31.68 2.86302 31.68 6V26C31.68 29.137 29.137 31.68 26 31.68H6C2.86302 31.68 0.32 29.137 0.32 26V6Z" stroke="#F8FAFF" stroke-width="0.64"></path><path fill-rule="evenodd" clip-rule="evenodd" d="M8 7.9989H11.2V11.1989H14.4V14.3989H17.6V17.5989L14.4 17.5989V20.7989L11.2 20.7989V23.9989H8V20.7989V17.5989L11.2 17.5989V14.3989H8V11.1989V7.9989ZM17.6 20.7989V17.5989L20.8 17.5989V20.7989L17.6 20.7989ZM20.8 20.7989H24V23.9989H20.8V20.7989ZM17.6 20.7989L14.4 20.7989V23.9989H17.6L17.6 20.7989ZM20.8 17.5989L20.8 14.3989H17.6L17.6 11.1989H14.4V7.9989H17.6H20.8V11.1989H24V14.3989V17.5989H20.8Z" fill="white"></path><g><path d="M49.7627 21.9145L49.7473 15.5143L46.5902 20.7841H45.4867L42.3296 15.6365V21.9145H40V11.222H42.0537L46.0691 17.8666L50.0232 11.222H52.0769L52.0922 21.9145H49.7627Z" fill="white"></path><path d="M58.2822 22.0367C57.4138 22.0367 56.6321 21.8585 55.9374 21.502C55.2528 21.1354 54.7164 20.6314 54.3281 19.9898C53.9399 19.3483 53.7457 18.6202 53.7457 17.8055C53.7457 16.9908 53.9399 16.2627 54.3281 15.6212C54.7164 14.9796 55.2528 14.4807 55.9374 14.1242C56.6321 13.7576 57.4138 13.5743 58.2822 13.5743C59.1507 13.5743 59.9272 13.7576 60.6118 14.1242C61.2964 14.4807 61.8328 14.9796 62.221 15.6212C62.6093 16.2627 62.8034 16.9908 62.8034 17.8055C62.8034 18.6202 62.6093 19.3483 62.221 19.9898C61.8328 20.6314 61.2964 21.1354 60.6118 21.502C59.9272 21.8585 59.1507 22.0367 58.2822 22.0367ZM58.2822 20.0815C58.8953 20.0815 59.3959 19.8778 59.7842 19.4705C60.1827 19.053 60.3819 18.498 60.3819 17.8055C60.3819 17.113 60.1827 16.5631 59.7842 16.1558C59.3959 15.7383 58.8953 15.5295 58.2822 15.5295C57.6692 15.5295 57.1634 15.7383 56.765 16.1558C56.3665 16.5631 56.1673 17.113 56.1673 17.8055C56.1673 18.498 56.3665 19.053 56.765 19.4705C57.1634 19.8778 57.6692 20.0815 58.2822 20.0815Z" fill="white"></path><path d="M73.4164 19.9593V23.6864H71.1942V21.9145H65.4009V23.6864H63.1787V19.9593H63.5158C64.0267 19.9491 64.3792 19.6487 64.5733 19.058C64.7675 18.4674 64.8901 17.6273 64.9411 16.5377L65.0484 13.6965H72.2363V19.9593H73.4164ZM67.1021 16.7057C67.0715 17.5407 67.0051 18.223 66.9029 18.7525C66.8109 19.2821 66.6321 19.6843 66.3665 19.9593H69.8455V15.6517H67.1481L67.1021 16.7057Z" fill="white"></path><path d="M83.0285 13.6965L79.3042 22.4185C78.9262 23.3656 78.4562 24.0326 77.8943 24.4196C77.3425 24.8065 76.6733 25 75.8865 25C75.4574 25 75.0334 24.9338 74.6145 24.8014C74.1956 24.669 73.8533 24.4857 73.5876 24.2515L74.4612 22.556C74.6451 22.7189 74.8546 22.8462 75.0896 22.9379C75.3348 23.0295 75.5749 23.0754 75.8099 23.0754C76.1369 23.0754 76.4025 22.9939 76.6069 22.831C76.8112 22.6782 76.9951 22.4185 77.1586 22.0519L77.1893 21.9756L73.6183 13.6965H76.0858L78.4 19.2719L80.7296 13.6965H83.0285Z" fill="white"></path><path d="M91.3531 13.6965V21.9145H88.9623V15.6517H86.3568L86.2802 17.1029C86.2393 18.1823 86.1372 19.0784 85.9737 19.7912C85.8102 20.5041 85.5446 21.0642 85.1767 21.4715C84.8089 21.8788 84.298 22.0825 83.6441 22.0825C83.2967 22.0825 82.8829 22.0214 82.4027 21.8992L82.5253 19.944C82.6888 19.9644 82.8063 19.9745 82.8778 19.9745C83.2354 19.9745 83.5011 19.8473 83.6748 19.5927C83.8587 19.3279 83.9813 18.9969 84.0426 18.5998C84.1039 18.1925 84.1499 17.6578 84.1805 16.9959L84.3032 13.6965H91.3531Z" fill="white"></path><path d="M97.9589 16.3238C99.0317 16.334 99.8542 16.5784 100.426 17.057C100.999 17.5255 101.285 18.1925 101.285 19.058C101.285 19.9644 100.963 20.6721 100.319 21.1813C99.6856 21.6802 98.7916 21.9297 97.637 21.9297L93.499 21.9145V13.6965H95.8745V16.3238H97.9589ZM97.4224 20.2342C97.8822 20.2444 98.2347 20.1477 98.4799 19.944C98.7252 19.7403 98.8478 19.4348 98.8478 19.0275C98.8478 18.6303 98.7252 18.3401 98.4799 18.1568C98.2449 17.9735 97.8924 17.8768 97.4224 17.8666L95.8745 17.8513V20.2342H97.4224Z" fill="white"></path><path d="M107.392 14.2617C108.178 14.2617 108.868 14.4246 109.461 14.7505C110.053 15.0662 110.508 15.5143 110.825 16.0947C111.152 16.6752 111.315 17.3473 111.315 18.111C111.315 18.8951 111.121 19.5927 110.733 20.2037C110.355 20.8045 109.823 21.2729 109.139 21.609C108.454 21.9348 107.678 22.0978 106.809 22.0978C105.368 22.0978 104.234 21.6395 103.407 20.723C102.589 19.7963 102.181 18.442 102.181 16.6599C102.181 15.0102 102.538 13.6965 103.254 12.7189C103.979 11.7312 105.088 11.0845 106.579 10.779L110.503 10L110.825 12.0468L107.361 12.7342C106.421 12.9175 105.721 13.223 105.261 13.6507C104.812 14.0784 104.546 14.6843 104.464 15.4684C104.822 15.0815 105.251 14.7862 105.752 14.5825C106.252 14.3686 106.799 14.2617 107.392 14.2617ZM106.824 20.2495C107.438 20.2495 107.928 20.0509 108.296 19.6538C108.674 19.2566 108.863 18.7525 108.863 18.1415C108.863 17.5204 108.674 17.0265 108.296 16.6599C107.928 16.2933 107.438 16.11 106.824 16.11C106.201 16.11 105.701 16.2933 105.323 16.6599C104.944 17.0265 104.755 17.5204 104.755 18.1415C104.755 18.7627 104.95 19.2719 105.338 19.669C105.726 20.056 106.222 20.2495 106.824 20.2495Z" fill="white"></path><path d="M115.852 13.5743C117.13 13.5743 118.11 13.8798 118.795 14.4908C119.48 15.0916 119.822 16.0031 119.822 17.2251V21.9145H117.584V20.891C117.135 21.6548 116.297 22.0367 115.071 22.0367C114.437 22.0367 113.886 21.9297 113.416 21.7159C112.956 21.502 112.603 21.2067 112.358 20.8299C112.113 20.4532 111.99 20.0255 111.99 19.5468C111.99 18.7831 112.276 18.1823 112.849 17.7444C113.431 17.3065 114.325 17.0876 115.531 17.0876H117.431C117.431 16.5682 117.273 16.1711 116.956 15.8961C116.639 15.611 116.164 15.4684 115.531 15.4684C115.091 15.4684 114.657 15.5397 114.228 15.6823C113.809 15.8147 113.451 15.998 113.155 16.2322L112.297 14.5672C112.746 14.2515 113.283 14.0071 113.906 13.834C114.54 13.6609 115.188 13.5743 115.852 13.5743ZM115.669 20.4328C116.077 20.4328 116.44 20.3411 116.757 20.1578C117.073 19.9644 117.298 19.6843 117.431 19.3177V18.4776H115.791C114.81 18.4776 114.32 18.7984 114.32 19.4399C114.32 19.7454 114.437 19.9898 114.672 20.1731C114.918 20.3462 115.25 20.4328 115.669 20.4328Z" fill="white"></path><path d="M121.746 13.6965H124.121V16.9043H127.707V13.6965H130.098V21.9145H127.707V18.8442H124.121V21.9145H121.746V13.6965Z" fill="white"></path><path d="M135.866 18.7984H134.625V21.9145H132.234V13.6965H134.625V16.889H135.912L138.149 13.6965H140.694L137.812 17.6375L140.893 21.9145H138.073L135.866 18.7984Z" fill="white"></path></g></svg>
