<svg xmlns="http://www.w3.org/2000/svg"  viewBox="0 0 62 34">
  <g fill="none" transform="translate(0 7)">
    <polygon fill="#D5D5D5" points="22.734 17.778 25.883 0 30.803 0 27.752 17.778"/>
    <polygon fill="#FFF" points="22.734 17.778 26.768 0 30.803 0 27.752 17.778"/>
    <path fill="#D5D5D5" d="M45.5650794,0.779541447 C44.5809523,0.389770722 43.0063492,0 41.0380952,0 C36.1174603,0 32.5746031,2.43606702 32.5746031,5.94400353 C32.5746031,8.57495591 35.0349206,9.93915344 37.0031746,10.8161376 C38.9714286,11.6931217 39.5619048,12.2777778 39.5619048,13.0573192 C39.5619048,14.2266314 37.9873017,14.8112875 36.6095237,14.8112875 C34.6412697,14.8112875 33.5587303,14.5189594 31.8857143,13.8368607 L31.1968254,13.5445326 L30.5079366,17.5396825 C31.6888889,18.0268959 33.8539683,18.5141094 36.1174603,18.5141094 C41.3333334,18.5141094 44.7777777,16.0780423 44.7777777,12.3752205 C44.7777777,10.3289242 43.4984126,8.76984127 40.5460317,7.50308642 C38.7746031,6.62610229 37.6920634,6.13888889 37.6920634,5.26190476 C37.6920634,4.48236331 38.5777777,3.70282187 40.5460317,3.70282187 C42.2190477,3.70282187 43.4,3.99514991 44.2857143,4.38492064 L44.7777777,4.579806 L45.5650794,0.779541447 L45.5650794,0.779541447 Z"/>
    <path fill="#FFF" d="M45.5650794,0.779541447 C44.5809523,0.389770722 43.0063492,0 41.0380952,0 C36.1174603,0 33.4603174,2.43606702 33.4603174,5.94400353 C33.4603174,8.57495591 35.0349206,9.93915344 37.0031746,10.8161376 C38.9714286,11.6931217 39.5619048,12.2777778 39.5619048,13.0573192 C39.5619048,14.2266314 37.9873017,14.8112875 36.6095237,14.8112875 C34.6412697,14.8112875 33.5587303,14.5189594 31.8857143,13.8368607 L31.1968254,13.5445326 L30.5079366,17.5396825 C31.6888889,18.0268959 33.8539683,18.5141094 36.1174603,18.5141094 C41.3333334,18.5141094 44.7777777,16.0780423 44.7777777,12.3752205 C44.7777777,10.3289242 43.4984126,8.76984127 40.5460317,7.50308642 C38.7746031,6.62610229 37.6920634,6.13888889 37.6920634,5.26190476 C37.6920634,4.48236331 38.5777777,3.70282187 40.5460317,3.70282187 C42.2190477,3.70282187 43.4,3.99514991 44.2857143,4.38492064 L44.7777777,4.579806 L45.5650794,0.779541447 L45.5650794,0.779541447 Z"/>
    <path fill="#D5D5D5" d="M54.0285714,0 C52.8476191,0 51.9619048,0.098765432 51.4698412,1.28395062 L44.0888889,17.7777778 L49.4031746,17.7777778 L50.3873017,14.8148148 L56.6857143,14.8148148 L57.2761905,17.7777778 L62,17.7777778 L57.8666666,0 L54.0285714,0 Z M51.7650794,11.8518518 C52.0603174,10.962963 53.7333334,6.61728396 53.7333334,6.61728396 C53.7333334,6.61728396 54.126984,5.5308642 54.4222223,4.83950618 L54.7174603,6.51851851 C54.7174603,6.51851851 55.7015874,10.962963 55.8984126,11.9506173 L51.7650794,11.9506173 L51.7650794,11.8518518 Z"/>
    <path fill="#FFF" d="M55.2095237,0 C54.0285714,0 53.1428571,0.098765432 52.6507937,1.28395062 L44.0888889,17.7777778 L49.4031746,17.7777778 L50.3873017,14.8148148 L56.6857143,14.8148148 L57.2761905,17.7777778 L62,17.7777778 L57.8666666,0 L55.2095237,0 Z M51.7650794,11.8518518 C52.1587303,10.8641975 53.7333334,6.61728396 53.7333334,6.61728396 C53.7333334,6.61728396 54.126984,5.5308642 54.4222223,4.83950618 L54.7174603,6.51851851 C54.7174603,6.51851851 55.7015874,10.962963 55.8984126,11.9506173 L51.7650794,11.9506173 L51.7650794,11.8518518 Z"/>
    <path fill="#D5D5D5" d="M13.6793651,12.345679 L13.1873016,9.77777778 C12.3015873,6.81481482 9.44761906,3.55555556 6.29841269,1.97530864 L10.7269841,17.7777778 L16.0412698,17.7777778 L24.0126983,0 L18.6984127,0 L13.6793651,12.345679 Z"/>
    <path fill="#FFF" d="M13.6793651,12.345679 L13.1873016,9.77777778 C12.3015873,6.81481482 8.85714286,1.11111111 5.53571429,1.11111111 L10.7269841,17.7777778 L16.0412698,17.7777778 L24.0126983,0 L19.6825397,0 L13.6793651,12.345679 Z"/>
    <path fill="#FFBC00" d="M2.21428571,0 L3.1,0.194885362 C9.39841269,1.65652557 11.5142857,5.35934744 13.1873016,9.74426807 L11.415873,1.46164021 C11.1206349,0.292328042 10.2349206,0 9.15238094,0 L0,0 L2.21428571,0 Z"/>
    <path fill="#F7981D" d="M2.21428571,0 C8.5126984,1.46164021 11.5142857,5.26190476 13.1873016,9.6468254 L11.5142857,2.72839507 C11.2190476,1.55908289 10.2349206,0.876984127 9.15238094,0.876984127 L2.21428571,0 Z"/>
    <path fill="#ED7C00" d="M2.21428571,0 C8.5126984,1.46164021 11.5142857,5.26190476 13.1873016,9.6468254 L12.0063492,5.84656084 C11.7111111,4.67724867 11.3174603,3.50793651 9.93968254,3.02072311 L2.21428571,0 Z"/>
  </g>
</svg>
