<svg xmlns="http://www.w3.org/2000/svg"  viewBox="0 0 146 34">
  <g fill="none" fill-rule="evenodd">
    <path fill="#FFFFFE" d="M21.4427177,13.1799188 L24.4971948,10.4530152 L27.2548192,13.4715939 L24.2018953,16.1988426 L21.4427177,13.1799188 Z M30.6042507,17.6924264 L32.639936,15.8745482 L34.5116618,17.8872792 L32.4437024,19.7046396 L30.6042507,17.6924264 Z M25.3832659,5.68076142 L27.4191238,3.83078173 L29.2587481,5.87561421 L27.2215096,7.69349239 L25.3832659,5.68076142 Z M28.0104131,11.686335 L30.0460984,9.86828426 L31.884342,11.8817056 L29.8490019,13.699066 L28.0104131,11.686335 Z M26.7624233,25.710731 L29.8167278,22.9833096 L32.5734893,26.0022335 L29.5202202,28.7608934 L26.7624233,25.710731 Z M24.0700375,19.5746802 L27.1231339,16.8477766 L29.882139,19.8984569 L26.8278344,22.6270863 L24.0700375,19.5746802 Z M18.6183014,7.0766599 L21.6724334,4.34992893 L24.4316111,7.36902538 L21.3773065,10.1280305 L18.6183014,7.0766599 Z M11.0999867,9.02501523 L15.2036314,5.38908629 L18.8814994,9.44664975 L14.7763014,13.0825787 L11.0999867,9.02501523 Z M16.9441898,22.9512081 L21.0157329,19.2831777 L24.726738,23.3403959 L20.6217126,26.9766701 L16.9441898,22.9512081 Z M14.0207075,15.939269 L18.1257329,12.3031675 L21.8042913,16.3609036 L17.6985755,19.9964873 L14.0207075,15.939269 Z M17.1737329,0 C19.8662913,0 22.4278547,0.616832487 24.726738,1.72036548 C25.0872761,1.88294416 25.4500578,2.07762437 25.8093877,2.27247716 L24.2331339,3.66872081 L21.8702202,1.23383756 L17.7985045,4.80452792 L15.4009004,2.23968528 L7.91365169,8.89471066 L12.7071339,14.1212183 L10.8357532,15.7440711 L15.565205,20.9705787 L13.6936517,22.5925685 L20.4586162,30.0268325 L24.4625045,26.390731 L27.9450019,30.287269 C27.2548192,30.8067614 26.4995705,31.3272893 25.6796009,31.7810254 C23.1834486,33.1767513 20.2932761,33.9867107 17.20687,33.9867107 C7.71586489,33.9867107 -3.19744231e-14,26.359665 -3.19744231e-14,16.9787716 C-0.0333736922,7.66139086 7.68376336,0 17.1737329,0 L17.1737329,0 Z"/>
    <polyline fill="#FFFFFE" points="55.44 24.83 53.062 24.83 50.068 13.786 49.914 13.786 47.006 24.83 44.629 24.83 41.061 9.139 43.527 9.139 45.994 20.847 46.148 20.847 49.01 9.139 50.971 9.139 54.032 20.847 54.186 20.847 56.433 9.139 59.009 9.139 55.44 24.83"/>
    <path fill="#FFFFFE" d="M68.9416041 22.3121117L68.9416041 23.994335C67.9509442 24.5695736 66.6302944 25.0126091 65.0436853 25.0126091 61.3451066 25.0126091 59.8256345 22.7109645 59.8256345 19.2146599 59.8256345 15.8493503 61.5209746 13.4149848 64.8243249 13.4149848 67.5762538 13.4149848 69.2729746 15.2087005 69.2729746 18.8152893L69.2729746 19.6342234 62.0939695 19.6342234C62.0939695 22.2891574 63.1723046 23.4622437 65.4415025 23.4622437 66.6302944 23.4622437 67.7314112 23.0411269 68.9416041 22.3121117M62.1381523 18.1503046L67.1801624 18.1503046C67.0707411 15.8272589 65.9470152 14.8985584 64.7582234 14.8985584 63.4149645 14.8985584 62.3792589 15.9385787 62.1381523 18.1503046M74.4183655 14.3645685C75.0773096 14.011797 76.2003452 13.5452893 77.39 13.5452893 80.1208731 13.5452893 81.5966802 15.448599 81.5966802 18.9897766 81.5966802 23.1286294 79.6143249 25.1425685 76.4228122 25.1425685 75.254731 25.1425685 73.4491066 24.7661523 72.1269036 24.056467L72.1269036 8.61062944 74.4183655 8.058 74.4183655 14.3645685zM74.3952386 23.2380508C75.1000914 23.5476751 75.8713909 23.5935838 76.4228122 23.5935838 78.0520508 23.5935838 79.2839898 22.5741015 79.2839898 18.9897766 79.2839898 16.1791675 78.271066 15.2716954 76.7962944 15.2716954 75.9147107 15.2716954 75.2763046 15.5159086 74.3952386 16.0019188L74.3952386 23.2380508 74.3952386 23.2380508z"/>
    <polyline fill="#FFFFFE" points="91.508 21.501 91.619 21.501 96.33 9.129 99.062 9.129 99.062 24.822 96.684 24.822 96.684 13.445 96.486 13.445 91.993 24.822 90.584 24.822 86.09 13.711 85.893 13.711 85.893 24.822 83.911 24.822 83.911 9.129 86.576 9.129 91.508 21.501"/>
    <path fill="#FFFFFE" d="M101.051066 19.2139695C101.051066 15.3396954 103.165624 13.4149848 106.071675 13.4149848 108.979452 13.4149848 111.092975 15.3396954 111.092975 19.2139695 111.092975 22.9976345 109.089218 25.0126091 106.071675 25.0126091 103.054822 25.0126091 101.051066 22.9976345 101.051066 19.2139695M108.779421 19.2139695C108.779421 16.2266294 107.569056 14.9656954 106.071675 14.9656954 104.618822 14.9656954 103.362376 16.2266294 103.362376 19.2139695 103.362376 22.2461827 104.508883 23.4622437 106.071675 23.4622437 107.634467 23.4622437 108.779421 22.2461827 108.779421 19.2139695M112.834741 15.0538883C113.825574 14.4553503 115.918558 13.4149848 118.450437 13.4149848 121.092944 13.4149848 122.082051 14.4553503 122.082051 16.7342132L122.082051 24.7468223 119.793523 24.7468223 119.793523 17.243868C119.793523 15.4958883 118.936102 15.1860914 117.811513 15.1860914 116.931655 15.1860914 115.807239 15.5851168 115.125168 15.9832792L115.125168 24.7468223 112.834741 24.7468223 112.834741 15.0538883M133.733523 22.3121117L133.733523 23.994335C132.743208 24.5695736 131.421868 25.0126091 129.835949 25.0126091 126.138406 25.0126091 124.618071 22.7109645 124.618071 19.2146599 124.618071 15.8493503 126.312721 13.4149848 129.616416 13.4149848 132.370071 13.4149848 134.066447 15.2087005 134.066447 18.8152893L134.066447 19.6342234 126.886406 19.6342234C126.886406 22.2891574 127.965604 23.4622437 130.233939 23.4622437 131.421868 23.4622437 132.524538 23.0411269 133.733523 22.3121117M126.929726 18.1503046L131.972254 18.1503046C131.863868 15.8272589 130.739452 14.8985584 129.550315 14.8985584 128.206711 14.8985584 127.172904 15.9385787 126.929726 18.1503046M143.21331 13.4149848L145.570183 13.4149848 141.583898 24.4789645C140.481401 27.533269 139.139523 29.1269543 136.607472 29.1269543L136.607472 27.3133909C138.105888 27.3133909 139.029411 26.1176954 139.559086 24.4789645L135.33066 13.4149848 137.753462 13.4149848 140.57201 21.558934 140.704213 21.558934 143.21331 13.4149848"/>
  </g>
</svg>
