<svg width="80" height="17" xmlns="http://www.w3.org/2000/svg"><g fill="#FFF" fill-rule="nonzero"><path d="M77.521 4.61l-1.854 4.557c-.053.053-.053.159-.053.212l-.053.106-.053-.106c0-.053-.053-.16-.053-.212L73.6 4.61h-2.384l3.126 7.79-1.325 2.967h2.385L79.8 4.61H77.52zM59.93 5.034a3.025 3.025 0 00-1.59-.583c-1.06-.106-2.067.265-2.756.954v-.848h-2.172v7.79h2.172v-4.08c0-.902.16-1.167.318-1.379.265-.423.742-.635 1.325-.635s1.113.265 1.377.688c.16.318.212.742.212.954v4.451h2.173V7.63c0-1.218-.318-2.066-1.06-2.596zM49.332 4.663a4.417 4.417 0 00-3.285.159c-.69.318-1.325.848-1.696 1.537-.37.582-.53 1.324-.53 2.12 0 .794.16 1.536.53 2.119.37.582.848 1.112 1.483 1.43.636.318 1.378.53 2.067.53.37 0 .742-.053 1.113-.159.318-.106.636-.212.954-.37.635-.372 1.165-.849 1.483-1.431.371-.583.53-1.325.53-2.12 0-1.749-1.007-3.232-2.65-3.815zm.583 3.921c-.053.689-.265 1.272-.69 1.643-.317.265-.794.424-1.377.477-.583 0-1.007-.16-1.378-.477-.423-.371-.636-.954-.688-1.643-.053-.795.265-1.43.847-1.855.318-.211.742-.37 1.166-.37.477 0 .848.159 1.219.37.636.371.954 1.06.9 1.855zM41.278 5.034a3.025 3.025 0 00-1.59-.583h-.371c-.848 0-1.59.37-2.225 1.113l-.106.159h-.213a2.256 2.256 0 00-.582-.636 3.024 3.024 0 00-1.59-.583c-1.007-.106-1.802.212-2.49.954v-.795h-2.173v7.79h2.173V8.265c0-.848.106-1.06.265-1.325a1.338 1.338 0 011.271-.635c.53 0 1.007.264 1.272.688.212.318.212.69.212 1.06V12.4h2.172V8.213c0-.795.106-1.06.265-1.325.265-.423.742-.635 1.272-.635s.954.265 1.219.688c.159.265.212.583.212.795V12.346h2.172V7.577c0-.424-.053-.848-.159-1.218-.212-.53-.53-1.007-1.006-1.325zM69.149 10.015c-.318.318-1.06.9-2.066.954-.848.052-1.484-.212-1.961-.69-.212-.211-.37-.53-.477-.847h5.988v-.053c.053-.318.106-.583.106-.9 0-.266-.053-.637-.16-1.114-.264-.9-.794-1.59-1.483-2.12-.795-.582-1.537-.741-1.748-.741-1.537-.265-3.286.424-4.187 1.855-.636 1.006-.582 2.013-.582 2.331 0 .37.052 1.537 1.006 2.596 1.113 1.22 2.65 1.272 3.126 1.325 2.12.053 3.55-1.272 3.869-1.537l-1.431-1.06zM65.44 6.729c.318-.211.689-.37 1.166-.37s.848.159 1.218.37c.318.265.583.583.742.954h-3.815c.106-.37.318-.742.689-.954zM15.208 0a8.356 8.356 0 00-8.372 8.372 8.356 8.356 0 008.372 8.372c4.61 0 8.372-3.762 8.372-8.372C23.58 3.762 19.818 0 15.208 0zm0 11.445c-1.696 0-3.127-1.43-3.127-3.126s1.431-3.126 3.127-3.126c1.695 0 3.126 1.43 3.126 3.126-.053 1.749-1.43 3.126-3.126 3.126zM6.782 2.384v12.188H3.815L0 2.384z"/></g></svg>
